<svg xmlns="http://www.w3.org/2000/svg" viewBox="0 0 512 512" style="enable-background:new 0 0 512 512" xml:space="preserve">
    <path d="M256 0C114.6 0 0 114.6 0 256s114.6 256 256 256 256-114.6 256-256S397.4 0 256 0zm20.7 342.8c-19.4-1.5-27.5-11.1-42.7-20.3-8.3 43.8-18.5 85.7-48.7 107.6-9.3-66.2 13.7-115.8 24.4-168.6-18.2-30.7 2.2-92.4 40.6-77.2 47.3 18.7-40.9 114 18.3 125.9 61.8 12.4 87.1-107.3 48.7-146.2-55.4-56.2-161.3-1.3-148.3 79.2 3.2 19.7 23.5 25.7 8.1 52.8-35.5-7.9-46-35.8-44.7-73.1 2.2-61 54.8-103.8 107.6-109.7 66.8-7.5 129.5 24.5 138.1 87.3 9.9 71-30 147.8-101.4 142.3z"/>
</svg>